<svg width="25" height="25" xmlns="http://www.w3.org/2000/svg" xmlns:xlink="http://www.w3.org/1999/xlink">
 <!-- Created with Method Draw - http://github.com/duopixel/Method-Draw/ -->

 <g>
  <title>background</title>
  <rect fill="#ffffff" id="canvas_background" height="27" width="27" y="-1" x="-1"/>
  <g display="none" overflow="visible" y="0" x="0" height="100%" width="100%" id="canvasGrid">
   <rect fill="url(#gridpattern)" stroke-width="0" y="2" x="2" height="600" width="800"/>
  </g>
 </g>
 <g>
  <title>Layer 1</title>

  <switch transform="matrix(0.426439, 0, 0, 0.426439, 0.213219, 0.213219)">
   <g id="svg_12" requiredFeatures="http://www.w3.org/TR/SVG11/feature#Extensibility"/>
   <a id="svg_13" xlink:href="https://www.diagrams.net/doc/faq/svg-export-text-problems">
    <text id="svg_14" y="595" x="400" font-size="10px" text-anchor="middle">Viewer does not support full SVG 1.1</text>
   </a>
  </switch>
  <path id="svg_8" fill="#232f3e" d="m5.82292,7.1748c-0.08121,0 -0.16243,0.01015 -0.24364,0.01015c-0.35531,0 -0.71063,0.04061 -1.05579,0.13197c-0.28425,0.07106 -0.5685,0.17258 -0.8426,0.30456c-0.08121,0.03046 -0.14213,0.08121 -0.19289,0.14213c-0.04061,0.07106 -0.05076,0.15228 -0.05076,0.23349l0,0.33501c0,0.14213 0.05076,0.21319 0.15228,0.21319l0.10152,0l0.23349,-0.09137c0.23349,-0.09137 0.47714,-0.17258 0.73093,-0.23349c0.23349,-0.05076 0.47714,-0.08121 0.72078,-0.08121c0.39592,-0.04061 0.79184,0.07106 1.0964,0.31471c0.24364,0.30456 0.36547,0.69033 0.32486,1.0761l0,0.49744c-0.26395,-0.06091 -0.51774,-0.11167 -0.77154,-0.15228c-0.24364,-0.03046 -0.48729,-0.05076 -0.73093,-0.05076c-0.59896,-0.03046 -1.18777,0.15228 -1.65475,0.5279c-0.40607,0.34516 -0.62941,0.85276 -0.60911,1.3908c-0.03046,0.47714 0.15228,0.95427 0.48729,1.29944c0.36547,0.33501 0.85276,0.50759 1.3502,0.48729c0.77154,0.01015 1.50247,-0.33501 1.98976,-0.94412c0.07106,0.15228 0.13197,0.28425 0.20304,0.40607c0.07106,0.11167 0.15228,0.21319 0.24364,0.30456c0.05076,0.06091 0.12182,0.10152 0.20304,0.10152c0.06091,0 0.12182,-0.0203 0.17258,-0.06091l0.42638,-0.28425c0.07106,-0.04061 0.12182,-0.11167 0.13197,-0.20304c0,-0.05076 -0.0203,-0.10152 -0.05076,-0.15228c-0.08121,-0.15228 -0.16243,-0.31471 -0.21319,-0.48729c-0.06091,-0.19289 -0.09137,-0.39592 -0.08121,-0.59896l0.01015,-2.2131c0.06091,-0.60911 -0.14213,-1.20807 -0.55835,-1.65475c-0.42638,-0.35531 -0.96443,-0.55835 -1.52278,-0.5685zm14.00956,0.01015c-0.11167,0 -0.21319,0 -0.32486,0.01015c-0.28425,0 -0.57866,0.04061 -0.85276,0.11167c-0.26395,0.07106 -0.50759,0.19289 -0.72078,0.35531c-0.20304,0.15228 -0.36547,0.33501 -0.48729,0.55835c-0.12182,0.22334 -0.19289,0.46699 -0.18273,0.72078c0,0.35531 0.12182,0.70048 0.33501,0.98473c0.28425,0.33501 0.65987,0.57866 1.08625,0.68017l0.97458,0.31471c0.2538,0.06091 0.48729,0.18273 0.68017,0.35531c0.12182,0.13197 0.19289,0.2944 0.18273,0.47714c0.01015,0.2538 -0.12182,0.49744 -0.34516,0.62941c-0.30456,0.17258 -0.63957,0.2538 -0.98473,0.23349c-0.2741,0 -0.5482,-0.03046 -0.81215,-0.09137c-0.24364,-0.05076 -0.48729,-0.13197 -0.72078,-0.23349l-0.16243,-0.07106c-0.05076,-0.01015 -0.09137,-0.01015 -0.13197,0c-0.10152,0 -0.15228,0.07106 -0.15228,0.21319l0,0.33501c0,0.07106 0.01015,0.13197 0.04061,0.20304c0.05076,0.08121 0.12182,0.14213 0.21319,0.18273c0.24364,0.12182 0.50759,0.21319 0.77154,0.2741c0.34516,0.07106 0.69033,0.11167 1.04564,0.11167l-0.0203,0.01015c0.33501,-0.01015 0.65987,-0.06091 0.97458,-0.16243c0.26395,-0.08121 0.51774,-0.21319 0.73093,-0.38577c0.20304,-0.15228 0.37562,-0.35531 0.48729,-0.58881c0.12182,-0.24364 0.18273,-0.51774 0.17258,-0.79184c0.01015,-0.33501 -0.10152,-0.67002 -0.30456,-0.94412c-0.2741,-0.31471 -0.63957,-0.5482 -1.04564,-0.64972l-0.95427,-0.30456c-0.26395,-0.08121 -0.51774,-0.20304 -0.73093,-0.37562c-0.13197,-0.12182 -0.20304,-0.2944 -0.20304,-0.47714c-0.01015,-0.24364 0.11167,-0.47714 0.32486,-0.60911c0.2741,-0.14213 0.57866,-0.20304 0.89336,-0.19289c0.44668,0 0.89336,0.08121 1.30959,0.26395c0.08121,0.05076 0.16243,0.08121 0.2538,0.09137c0.10152,0 0.15228,-0.07106 0.15228,-0.22334l0,-0.31471c0.01015,-0.08121 -0.01015,-0.16243 -0.05076,-0.22334c-0.06091,-0.07106 -0.13197,-0.12182 -0.20304,-0.17258l-0.28425,-0.11167l-0.38577,-0.11167l-0.44668,-0.07106c-0.04061,0 -0.08121,-0.01015 -0.12182,-0.01015zm-3.92877,0.17258c-0.08121,-0.01015 -0.16243,0.0203 -0.23349,0.06091c-0.07106,0.08121 -0.11167,0.17258 -0.13197,0.2741l-1.16746,4.51757l-1.05579,-4.49727c-0.0203,-0.10152 -0.06091,-0.19289 -0.13197,-0.2741c-0.08121,-0.05076 -0.17258,-0.07106 -0.2741,-0.06091l-0.53805,0c-0.10152,-0.01015 -0.19289,0.01015 -0.2741,0.06091c-0.07106,0.07106 -0.12182,0.17258 -0.13197,0.2741l-1.06594,4.49727l-1.13701,-4.50742c-0.0203,-0.10152 -0.06091,-0.19289 -0.13197,-0.26395c-0.08121,-0.05076 -0.17258,-0.08121 -0.26395,-0.07106l-0.67002,0c-0.11167,0 -0.16243,0.06091 -0.16243,0.17258c0.01015,0.09137 0.03046,0.18273 0.06091,0.2741l1.58369,5.21805c0.0203,0.10152 0.07106,0.19289 0.14213,0.26395c0.08121,0.05076 0.17258,0.08121 0.26395,0.07106l0.58881,-0.0203c0.10152,0.01015 0.19289,-0.01015 0.2741,-0.07106c0.07106,-0.07106 0.11167,-0.16243 0.13197,-0.26395l1.04564,-4.35514l1.04564,4.35514c0.01015,0.10152 0.06091,0.19289 0.13197,0.26395c0.08121,0.06091 0.17258,0.08121 0.26395,0.07106l0.58881,0c0.09137,0.01015 0.18273,-0.01015 0.2538,-0.06091c0.07106,-0.07106 0.12182,-0.17258 0.14213,-0.26395l1.63445,-5.2282c0.05076,-0.07106 0.05076,-0.16243 0.05076,-0.16243c0,-0.04061 0,-0.07106 0,-0.11167c0,-0.04061 -0.0203,-0.09137 -0.05076,-0.12182c-0.03046,-0.03046 -0.07106,-0.05076 -0.12182,-0.04061l-0.62941,0c-0.01015,0 -0.0203,0 -0.03046,0zm-10.52747,3.3095c0.05076,0 0.10152,0 0.15228,0l0.63957,0c0.21319,0.0203 0.42638,0.05076 0.63957,0.09137l0.01015,0.30456c0,0.20304 -0.0203,0.39592 -0.07106,0.58881c-0.04061,0.16243 -0.12182,0.31471 -0.23349,0.42638c-0.16243,0.20304 -0.38577,0.35531 -0.63957,0.43653c-0.23349,0.08121 -0.47714,0.12182 -0.72078,0.12182c-0.2538,0.04061 -0.50759,-0.03046 -0.71063,-0.19289c-0.18273,-0.19289 -0.2741,-0.45683 -0.24364,-0.72078c-0.0203,-0.30456 0.10152,-0.58881 0.32486,-0.78169c0.2538,-0.17258 0.5482,-0.2741 0.85276,-0.2741zm15.6237,4.16226c-0.71063,0.01015 -1.55323,0.17258 -2.18265,0.61926c-0.20304,0.13197 -0.17258,0.30456 0.05076,0.30456c0.71063,-0.09137 2.30447,-0.28425 2.59887,0.08121c0.28425,0.35531 -0.31471,1.85779 -0.5685,2.53796c-0.08121,0.20304 0.10152,0.28425 0.2741,0.13197c1.19792,-0.99488 1.53293,-3.08616 1.26898,-3.39072c-0.14213,-0.15228 -0.73093,-0.2944 -1.44156,-0.28425zm-18.66926,0.38577c-0.15228,0.0203 -0.23349,0.20304 -0.07106,0.34516c2.75115,2.4872 6.33476,3.84755 10.05033,3.82725c2.93389,0.01015 5.80686,-0.86291 8.23315,-2.50751c0.36547,-0.2741 0.05076,-0.68017 -0.33501,-0.51774c-2.42629,1.02534 -5.03532,1.55323 -7.66465,1.56339c-3.53284,0.01015 -6.99463,-0.91367 -10.05033,-2.66994c-0.06091,-0.03046 -0.11167,-0.04061 -0.16243,-0.04061zm-2.69024,-15.3293l25.37963,0l0,25.37963l-25.37963,0l0,-25.37963z"/>
 </g>
</svg>