<svg width="25" height="25" xmlns="http://www.w3.org/2000/svg" xmlns:xlink="http://www.w3.org/1999/xlink" style="vector-effect: non-scaling-stroke;">
 <!-- Created with Method Draw - http://github.com/duopixel/Method-Draw/ -->

 <g>
  <title>background</title>
  <rect fill="#ffffff" id="canvas_background" height="27" width="27" y="-1" x="-1"/>
  <g style="vector-effect: non-scaling-stroke;" display="none" overflow="visible" y="0" x="0" height="100%" width="100%" id="canvasGrid">
   <rect fill="url(#gridpattern)" stroke-width="0" y="2" x="2" height="600" width="800"/>
  </g>
 </g>
 <g>
  <title>Layer 1</title>

  <switch style="vector-effect: non-scaling-stroke;" transform="matrix(0.426439, 0, 0, 0.426439, 0.213219, 0.213219)">
   <g style="vector-effect: non-scaling-stroke;" id="svg_12" requiredFeatures="http://www.w3.org/TR/SVG11/feature#Extensibility"/>
   <a style="vector-effect: non-scaling-stroke;" id="svg_13" xlink:href="https://www.diagrams.net/doc/faq/svg-export-text-problems">
    <text style="vector-effect: non-scaling-stroke;" id="svg_14" y="595" x="400" font-size="10px" text-anchor="middle">Viewer does not support full SVG 1.1</text>
   </a>
  </switch>

  <switch style="vector-effect: non-scaling-stroke;" transform="matrix(0.181624, 0, 0, 0.181624, 0.090812, 0.090812)">
   <g style="vector-effect: non-scaling-stroke;" id="svg_40" requiredFeatures="http://www.w3.org/TR/SVG11/feature#Extensibility"/>
   <a style="vector-effect: non-scaling-stroke;" id="svg_41" xlink:href="https://www.diagrams.net/doc/faq/svg-export-text-problems">
    <text style="vector-effect: non-scaling-stroke;" id="svg_42" y="20" x="12.5" font-size="10px" text-anchor="middle">Viewer does not support full SVG 1.1</text>
   </a>
  </switch>
  <path style="vector-effect: non-scaling-stroke;" id="svg_20" stroke-miterlimit="10" stroke="#000000" fill="none" d="m38.79141,71.05875l9.98932,-0.00182l0,7.45203"/>
  <path style="vector-effect: non-scaling-stroke;" id="svg_21" stroke-miterlimit="10" stroke="#000000" fill="#000000" d="m48.78073,79.46249l-0.63568,-1.27137l0.63568,0.31784l0.63568,-0.31784l-0.63568,1.27137z"/>
  <path id="svg_23" fill="#147eba" d="m-0.03462,0.02201l25.09697,0l0,25.09697l-25.09697,0l0,-25.09697zm12.56856,3.22245c-1.12434,0 -2.21857,0.42163 -3.05179,1.18458c-0.81314,0.72279 -1.28496,1.76683 -1.28496,2.86105l0,2.54985l-2.31896,0c-0.09035,0 -0.19074,0.04016 -0.25097,0.11043c-0.07027,0.06023 -0.10039,0.15058 -0.10039,0.24093l0,11.34383c0,0.20078 0.16062,0.3614 0.35136,0.3614l13.27128,0c0.19074,0 0.35136,-0.16062 0.35136,-0.3614l0,-11.32375c0.01004,-0.09035 -0.03012,-0.1807 -0.10039,-0.25097c-0.06023,-0.07027 -0.15058,-0.11043 -0.25097,-0.11043l-2.30892,0l0,-2.5097c-0.01004,-1.08419 -0.46178,-2.11818 -1.25485,-2.86105c-0.82318,-0.79306 -1.91741,-1.22473 -3.05179,-1.23477zm-0.01004,0.72279c0.95368,-0.01004 1.86721,0.35136 2.55989,1.00388c0.66256,0.61237 1.04403,1.4757 1.04403,2.36915l0,2.5097l-7.248,0l0.01004,-2.53981c0.01004,-0.90349 0.39151,-1.75679 1.06411,-2.35911c0.70272,-0.64248 1.62628,-0.99384 2.56993,-0.9838zm-6.29432,6.59548l12.56856,0l-0.01004,10.611l-12.55852,0l0,-10.611zm6.29432,2.24869c-1.034,-0.01004 -1.90737,0.77299 -2.00776,1.79694c-0.09035,1.034 0.6224,1.95756 1.63632,2.13826l0,2.79078l0.72279,0l0,-2.79078c0.93361,-0.17066 1.61624,-0.99384 1.62628,-1.94752c0,-1.09423 -0.88341,-1.97764 -1.97764,-1.98768zm-0.12047,0.71275c0.04016,0 0.08031,0 0.12047,0.01004c0.33128,0 0.65252,0.1305 0.89345,0.37144c0.24093,0.24093 0.37144,0.56217 0.3614,0.89345c0.01004,0.34132 -0.12047,0.66256 -0.3614,0.89345c-0.24093,0.24093 -0.56217,0.37144 -0.89345,0.37144c-0.47182,0.04016 -0.91353,-0.1807 -1.17454,-0.56217c-0.26101,-0.39151 -0.28109,-0.89345 -0.06023,-1.30504c0.22085,-0.41159 0.65252,-0.66256 1.11431,-0.6726z"/>
  <path style="vector-effect: non-scaling-stroke;" id="svg_27" fill="#e9f3e6" d="m30.61833,28.81119l23.61112,0l0,23.61112l-23.61112,0l0,-23.61112z"/>
  <path id="svg_28" fill="#248814" d="m30.61833,28.81119l4.5406,0l0,4.5406l-4.5406,0l0,-4.5406zm2.27393,0.58301c-0.20342,0 -0.40139,0.07628 -0.55032,0.21432c-0.14893,0.13077 -0.23429,0.31966 -0.23429,0.51763l0,0.46132l-0.41955,0c-0.01635,0 -0.03451,0.00726 -0.04541,0.01998c-0.01271,0.0109 -0.01816,0.02724 -0.01816,0.04359l0,2.05235c0,0.03632 0.02906,0.06538 0.06357,0.06538l2.40107,0c0.03451,0 0.06357,-0.02906 0.06357,-0.06538l0,-2.04872c0.00182,-0.01635 -0.00545,-0.03269 -0.01816,-0.04541c-0.0109,-0.01271 -0.02724,-0.01998 -0.04541,-0.01998l-0.41774,0l0,-0.45406c-0.00182,-0.19615 -0.08355,-0.38323 -0.22703,-0.51763c-0.14893,-0.14348 -0.3469,-0.22158 -0.55214,-0.2234zm-0.00182,0.13077c0.17254,-0.00182 0.33782,0.06357 0.46314,0.18162c0.11987,0.11079 0.18889,0.26699 0.18889,0.42863l0,0.45406l-1.31133,0l0.00182,-0.45951c0.00182,-0.16346 0.07083,-0.31784 0.19252,-0.42682c0.12714,-0.11624 0.29423,-0.17981 0.46496,-0.17799zm-1.13878,1.19327l2.27393,0l-0.00182,1.91977l-2.27212,0l0,-1.91977zm1.13878,0.40684c-0.18707,-0.00182 -0.34509,0.13985 -0.36325,0.32511c-0.01635,0.18707 0.11261,0.35417 0.29605,0.38686l0,0.50491l0.13077,0l0,-0.50491c0.16891,-0.03088 0.29241,-0.17981 0.29423,-0.35235c0,-0.19797 -0.15983,-0.3578 -0.3578,-0.35962zm-0.02179,0.12895c0.00726,0 0.01453,0 0.02179,0.00182c0.05994,0 0.11806,0.02361 0.16165,0.0672c0.04359,0.04359 0.0672,0.10171 0.06538,0.16165c0.00182,0.06175 -0.02179,0.11987 -0.06538,0.16165c-0.04359,0.04359 -0.10171,0.0672 -0.16165,0.0672c-0.08536,0.00726 -0.16528,-0.03269 -0.2125,-0.10171c-0.04722,-0.07083 -0.05085,-0.16165 -0.0109,-0.23611c0.03996,-0.07447 0.11806,-0.11987 0.2016,-0.12169z"/>
  <rect style="vector-effect: non-scaling-stroke;" transform="matrix(0.181624, 0, 0, 0.181624, 0.090812, 0.090812)" id="svg_32" stroke-dasharray="3 3" stroke="#147eba" fill="none" height="130" width="130" y="18.13097" x="168.08086"/>
  <g style="vector-effect: non-scaling-stroke;" transform="matrix(0.181624, 0, 0, 0.181624, 0.090812, 0.090812)" id="svg_33" font-size="12px" text-anchor="middle" font-family="Helvetica" fill="#147EBA">
   <text style="vector-effect: non-scaling-stroke;" id="svg_34" y="35.63097" x="232.58086">Availability Zone</text>
  </g>
 </g>
</svg>