<?xml version="1.0" encoding="UTF-8"?>
<svg width="40px" height="40px" viewBox="0 0 40 40" version="1.1" xmlns="http://www.w3.org/2000/svg" xmlns:xlink="http://www.w3.org/1999/xlink">
    <!-- Generator: Sketch 64 (93537) - https://sketch.com -->
    <title>Icon-Architecture/32/Arch_Amazon-S3-Standard_32</title>
    <desc>Created with Sketch.</desc>
    <defs>
        <linearGradient x1="0%" y1="100%" x2="100%" y2="0%" id="s3linearGradient-1">
            <stop stop-color="#1B660F" offset="0%"></stop>
            <stop stop-color="#6CAE3E" offset="100%"></stop>
        </linearGradient>
    </defs>
    <g id="Icon-Architecture/32/Arch_Amazon-S3-Standard_32" stroke="none" stroke-width="1" fill="none" fill-rule="evenodd">
        <g id="Icon-Architecture-BG/32/Storage" fill="url(#s3linearGradient-1)">
            <rect id="Rectangle" x="0" y="0" width="40" height="40"></rect>
        </g>
        <path d="M30.0738541,22.6711617 L30.2731341,21.3699569 C31.9774247,22.3856527 32.0091509,22.8144136 32.0061766,22.8303305 C32.0022108,22.8333149 31.6978378,23.0700785 30.0738541,22.6711617 L30.0738541,22.6711617 Z M19.8887596,18.9376589 C19.8887596,19.4857964 19.4436017,19.9324638 18.8973166,19.9324638 C18.35004,19.9324638 17.9058735,19.4857964 17.9058735,18.9376589 C17.9058735,18.3895214 18.35004,17.942854 18.8973166,17.942854 C19.4436017,17.942854 19.8887596,18.3895214 19.8887596,18.9376589 L19.8887596,18.9376589 Z M27.7578431,31.2682657 C27.7578431,31.3906267 27.263113,31.5786449 26.8278695,31.7457721 L26.3827116,31.9168785 C25.9078104,32.1048967 25.3456622,32.2750083 24.714113,32.4202498 C23.1377185,32.786338 20.9634839,33.0051951 18.8973166,33.0051951 C13.3938162,33.0051951 10.4621191,31.9964629 10.4581534,31.2065878 L8.25615834,13.5706864 C10.1547718,15.0231016 14.0561002,15.9532442 18.8973166,15.9532442 C23.5263642,15.9532442 28.2614962,15.0559301 30.4813372,13.481154 L29.1151286,22.4005748 C26.2439096,21.5271361 22.7232953,19.8409417 20.9833128,19.003316 L20.8782198,18.9535758 C20.8782198,18.9476069 20.8802027,18.9426329 20.8802027,18.9376589 C20.8802027,17.8403891 19.9898868,16.9480491 18.8973166,16.9480491 C17.8037549,16.9480491 16.9144305,17.8403891 16.9144305,18.9376589 C16.9144305,20.0349287 17.8037549,20.9272687 18.8973166,20.9272687 C19.629993,20.9272687 20.2635251,20.5213883 20.6075558,19.9255002 C22.4129736,20.7939649 26.0178606,22.516967 28.9634379,23.3943849 L27.7578431,31.2682657 Z M18.8973166,7.99480491 C25.5736941,7.99480491 30.7549755,9.85409528 30.7916588,11.4597104 L30.7678642,11.6079363 C30.4981917,13.1866917 25.4160546,14.9584393 18.8973166,14.9584393 C12.5104405,14.9584393 8.18874022,13.2334476 8.00829758,11.5830662 L7.99342593,11.4626948 C8.01622913,9.78545374 12.3904759,7.99480491 18.8973166,7.99480491 L18.8973166,7.99480491 Z M30.4357308,20.3134741 L31.7801276,11.5522273 C31.781119,11.5273571 31.7860762,11.502487 31.7860762,11.4766221 C31.7860762,8.67425666 25.2326377,7 18.8973166,7 C12.0028216,7 7,8.88316569 7,11.4766221 C7,11.497513 7.00198289,11.5174091 7.00297433,11.5383 L9.47067608,31.2682657 C9.47067608,33.8676909 17.322905,34 18.8973166,34 C21.0338764,34 23.2913922,33.7721897 24.9361962,33.3901846 C25.6163261,33.2330054 26.2260636,33.0489665 26.7475626,32.8420471 L27.1788404,32.6749199 C28.0225584,32.3535979 28.7492862,32.0770421 28.7433375,31.3438709 L29.9231547,23.6599978 C30.5784986,23.8181718 31.1198265,23.8997458 31.5520957,23.8997458 C32.1320898,23.898751 32.5256927,23.7574887 32.7636391,23.4719797 C32.9629191,23.2332265 33.0382688,22.9457279 32.9817565,22.6403228 C32.8548518,21.9588814 32.0587231,21.2346634 30.4357308,20.3134741 L30.4357308,20.3134741 Z" id="Amazon-S3-Standard-Icon_32_Squid" fill="#FFFFFF"></path>
    </g>
</svg>