<svg width="25" height="25" xmlns="http://www.w3.org/2000/svg" xmlns:xlink="http://www.w3.org/1999/xlink" style="vector-effect: non-scaling-stroke;">
 <!-- Created with Method Draw - http://github.com/duopixel/Method-Draw/ -->

 <g>
  <title>background</title>
  <rect fill="#ffffff" id="canvas_background" height="27" width="27" y="-1" x="-1"/>
  <g style="vector-effect: non-scaling-stroke;" display="none" overflow="visible" y="0" x="0" height="100%" width="100%" id="canvasGrid">
   <rect fill="url(#gridpattern)" stroke-width="0" y="2" x="2" height="600" width="800"/>
  </g>
 </g>
 <g>
  <title>Layer 1</title>

  <switch style="vector-effect: non-scaling-stroke;" transform="matrix(0.426439, 0, 0, 0.426439, 0.213219, 0.213219)">
   <g style="vector-effect: non-scaling-stroke;" id="svg_12" requiredFeatures="http://www.w3.org/TR/SVG11/feature#Extensibility"/>
   <a style="vector-effect: non-scaling-stroke;" id="svg_13" xlink:href="https://www.diagrams.net/doc/faq/svg-export-text-problems">
    <text style="vector-effect: non-scaling-stroke;" id="svg_14" y="595" x="400" font-size="10px" text-anchor="middle">Viewer does not support full SVG 1.1</text>
   </a>
  </switch>

  <switch style="vector-effect: non-scaling-stroke;" transform="matrix(0.181624, 0, 0, 0.181624, 0.090812, 0.090812)">
   <g style="vector-effect: non-scaling-stroke;" id="svg_40" requiredFeatures="http://www.w3.org/TR/SVG11/feature#Extensibility"/>
   <a style="vector-effect: non-scaling-stroke;" id="svg_41" xlink:href="https://www.diagrams.net/doc/faq/svg-export-text-problems">
    <text style="vector-effect: non-scaling-stroke;" id="svg_42" y="20" x="12.5" font-size="10px" text-anchor="middle">Viewer does not support full SVG 1.1</text>
   </a>
  </switch>
  <path style="vector-effect: non-scaling-stroke;" id="svg_20" stroke-miterlimit="10" stroke="#000000" fill="none" d="m38.79141,71.05875l9.98932,-0.00182l0,7.45203"/>
  <path style="vector-effect: non-scaling-stroke;" id="svg_21" stroke-miterlimit="10" stroke="#000000" fill="#000000" d="m48.78073,79.46249l-0.63568,-1.27137l0.63568,0.31784l0.63568,-0.31784l-0.63568,1.27137z"/>
  <path style="vector-effect: non-scaling-stroke;" id="svg_22" fill="#e6f2f8" d="m3.37473,28.81119l23.61112,0l0,23.61112l-23.61112,0l0,-23.61112z"/>
  <path style="vector-effect: non-scaling-stroke;" id="svg_23" fill="#147eba" d="m3.37473,28.81119l4.5406,0l0,4.5406l-4.5406,0l0,-4.5406zm2.27393,0.58301c-0.20342,0 -0.40139,0.07628 -0.55214,0.21432c-0.14712,0.13077 -0.23248,0.31966 -0.23248,0.51763l0,0.46132l-0.41955,0c-0.01635,0 -0.03451,0.00726 -0.04541,0.01998c-0.01271,0.0109 -0.01816,0.02724 -0.01816,0.04359l0,2.05235c0,0.03632 0.02906,0.06538 0.06357,0.06538l2.40107,0c0.03451,0 0.06357,-0.02906 0.06357,-0.06538l0,-2.04872c0.00182,-0.01635 -0.00545,-0.03269 -0.01816,-0.04541c-0.0109,-0.01271 -0.02724,-0.01998 -0.04541,-0.01998l-0.41774,0l0,-0.45406c-0.00182,-0.19615 -0.08355,-0.38323 -0.22703,-0.51763c-0.14893,-0.14348 -0.3469,-0.22158 -0.55214,-0.2234zm-0.00182,0.13077c0.17254,-0.00182 0.33782,0.06357 0.46314,0.18162c0.11987,0.11079 0.18889,0.26699 0.18889,0.42863l0,0.45406l-1.31133,0l0.00182,-0.45951c0.00182,-0.16346 0.07083,-0.31784 0.19252,-0.42682c0.12714,-0.11624 0.29423,-0.17981 0.46496,-0.17799zm-1.13878,1.19327l2.27393,0l-0.00182,1.91977l-2.27212,0l0,-1.91977zm1.13878,0.40684c-0.18707,-0.00182 -0.34509,0.13985 -0.36325,0.32511c-0.01635,0.18707 0.11261,0.35417 0.29605,0.38686l0,0.50491l0.13077,0l0,-0.50491c0.16891,-0.03088 0.29241,-0.17981 0.29423,-0.35235c0,-0.19797 -0.15983,-0.3578 -0.3578,-0.35962zm-0.02179,0.12895c0.00726,0 0.01453,0 0.02179,0.00182c0.05994,0 0.11806,0.02361 0.16165,0.0672c0.04359,0.04359 0.0672,0.10171 0.06538,0.16165c0.00182,0.06175 -0.02179,0.11987 -0.06538,0.16165c-0.04359,0.04359 -0.10171,0.0672 -0.16165,0.0672c-0.08536,0.00726 -0.16528,-0.03269 -0.2125,-0.10171c-0.04722,-0.07083 -0.05085,-0.16165 -0.0109,-0.23611c0.03996,-0.07447 0.11806,-0.11987 0.2016,-0.12169z"/>
  <path style="vector-effect: non-scaling-stroke;" id="svg_27" fill="#e9f3e6" d="m30.61833,28.81119l23.61112,0l0,23.61112l-23.61112,0l0,-23.61112z"/>
  <path style="vector-effect: non-scaling-stroke;" id="svg_28" fill="#248814" d="m30.61833,28.81119l4.5406,0l0,4.5406l-4.5406,0l0,-4.5406zm2.27393,0.58301c-0.20342,0 -0.40139,0.07628 -0.55032,0.21432c-0.14893,0.13077 -0.23429,0.31966 -0.23429,0.51763l0,0.46132l-0.41955,0c-0.01635,0 -0.03451,0.00726 -0.04541,0.01998c-0.01271,0.0109 -0.01816,0.02724 -0.01816,0.04359l0,2.05235c0,0.03632 0.02906,0.06538 0.06357,0.06538l2.40107,0c0.03451,0 0.06357,-0.02906 0.06357,-0.06538l0,-2.04872c0.00182,-0.01635 -0.00545,-0.03269 -0.01816,-0.04541c-0.0109,-0.01271 -0.02724,-0.01998 -0.04541,-0.01998l-0.41774,0l0,-0.45406c-0.00182,-0.19615 -0.08355,-0.38323 -0.22703,-0.51763c-0.14893,-0.14348 -0.3469,-0.22158 -0.55214,-0.2234zm-0.00182,0.13077c0.17254,-0.00182 0.33782,0.06357 0.46314,0.18162c0.11987,0.11079 0.18889,0.26699 0.18889,0.42863l0,0.45406l-1.31133,0l0.00182,-0.45951c0.00182,-0.16346 0.07083,-0.31784 0.19252,-0.42682c0.12714,-0.11624 0.29423,-0.17981 0.46496,-0.17799zm-1.13878,1.19327l2.27393,0l-0.00182,1.91977l-2.27212,0l0,-1.91977zm1.13878,0.40684c-0.18707,-0.00182 -0.34509,0.13985 -0.36325,0.32511c-0.01635,0.18707 0.11261,0.35417 0.29605,0.38686l0,0.50491l0.13077,0l0,-0.50491c0.16891,-0.03088 0.29241,-0.17981 0.29423,-0.35235c0,-0.19797 -0.15983,-0.3578 -0.3578,-0.35962zm-0.02179,0.12895c0.00726,0 0.01453,0 0.02179,0.00182c0.05994,0 0.11806,0.02361 0.16165,0.0672c0.04359,0.04359 0.0672,0.10171 0.06538,0.16165c0.00182,0.06175 -0.02179,0.11987 -0.06538,0.16165c-0.04359,0.04359 -0.10171,0.0672 -0.16165,0.0672c-0.08536,0.00726 -0.16528,-0.03269 -0.2125,-0.10171c-0.04722,-0.07083 -0.05085,-0.16165 -0.0109,-0.23611c0.03996,-0.07447 0.11806,-0.11987 0.2016,-0.12169z"/>
  <rect style="vector-effect: non-scaling-stroke;" transform="matrix(0.181624, 0, 0, 0.181624, 0.090812, 0.090812)" id="svg_32" stroke-dasharray="3 3" stroke="#147eba" fill="none" height="130" width="130" y="18.13097" x="168.08086"/>
  <g style="vector-effect: non-scaling-stroke;" transform="matrix(0.181624, 0, 0, 0.181624, 0.090812, 0.090812)" id="svg_33" font-size="12px" text-anchor="middle" font-family="Helvetica" fill="#147EBA">
   <text style="vector-effect: non-scaling-stroke;" id="svg_34" y="35.63097" x="232.58086">Availability Zone</text>
  </g>
  <path id="svg_36" fill="#248814" d="m10.56287,6.63053c-0.06016,0 -0.11028,0 -0.17044,0l0,0c-1.31339,0.03008 -2.39618,0.59153 -3.28848,1.60414c-0.01003,0 -0.01003,0 -0.01003,0c-0.9324,1.11287 -1.26326,2.27587 -1.17303,3.489c-1.15297,0.33085 -1.84476,1.19308 -2.20569,2.0152c-0.01003,0.01003 -0.01003,0.02005 -0.02005,0.0401c-0.41106,1.27328 -0.06016,2.58667 0.50129,3.38874c0.01003,0.01003 0.01003,0.01003 0.02005,0.02005c0.68176,0.87225 1.71442,1.35349 2.76714,1.35349l11.17883,0c1.02264,0 1.90491,-0.37096 2.6368,-1.163c0.45116,-0.43111 0.69178,-1.08279 0.78202,-1.7846c0.09023,-0.69178 0.03008,-1.4337 -0.26067,-2.04527c-0.01003,-0.01003 -0.01003,-0.02005 -0.01003,-0.03008c-0.51132,-0.90233 -1.36352,-1.71442 -2.55659,-1.88486c-0.02005,-0.8522 -0.48124,-1.65427 -1.08279,-2.08538c-0.01003,-0.01003 -0.02005,-0.01003 -0.03008,-0.02005c-0.64165,-0.36093 -1.25323,-0.40103 -1.7445,-0.24062c-0.3108,0.10026 -0.55142,0.26067 -0.77199,0.44114c-0.63163,-1.38357 -1.71442,-2.56662 -3.33861,-2.95763c0,0 0,0 0,0c-0.43111,-0.09023 -0.84217,-0.14036 -1.22315,-0.14036zm-0.16041,0.73189c0.37096,0 0.77199,0.05013 1.21313,0.15039c1.52393,0.36093 2.51649,1.54398 3.02781,2.95763c0.05013,0.12031 0.15039,0.21054 0.28072,0.24062c0.13034,0.02005 0.26067,-0.02005 0.3509,-0.11028c0.25065,-0.2707 0.5414,-0.50129 0.8522,-0.60155c0.30078,-0.10026 0.64165,-0.09023 1.1229,0.17044c0.41106,0.3108 0.8522,1.13292 0.77199,1.72445c-0.02005,0.11028 0.02005,0.22057 0.09023,0.30078c0.07018,0.08021 0.17044,0.13034 0.2707,0.13034c1.07277,0.01003 1.77458,0.69178 2.25582,1.55401c0.21054,0.42109 0.2707,1.04269 0.20052,1.62419c-0.08021,0.57147 -0.3108,1.09282 -0.56145,1.33344c-0.01003,0.01003 -0.01003,0.02005 -0.02005,0.02005c-0.61158,0.68176 -1.23318,0.9324 -2.0954,0.9324l-11.17883,0c-0.82212,0 -1.63421,-0.37096 -2.17561,-1.05271c-0.41106,-0.60155 -0.71184,-1.71442 -0.39101,-2.71701c0.33085,-0.75194 0.90233,-1.4738 1.95504,-1.66429c0.19049,-0.0401 0.33085,-0.22057 0.30078,-0.42109c-0.15039,-1.15297 0.09023,-2.13551 0.99256,-3.20827c0.79204,-0.8923 1.63421,-1.35349 2.73706,-1.36352zm1.77458,3.32858c-0.43111,0 -0.80207,0.23059 -1.07277,0.51132c-0.28072,0.29075 -0.49127,0.64165 -0.49127,1.04269l0,0.46119l-0.50129,0c-0.10026,0 -0.20052,0.0401 -0.2707,0.11028c-0.07018,0.07018 -0.11028,0.16041 -0.11028,0.26067l0,2.62677c0,0.10026 0.0401,0.19049 0.11028,0.26067c0.07018,0.07018 0.17044,0.11028 0.2707,0.11028l4.03039,0c0.10026,0 0.19049,-0.0401 0.26067,-0.11028c0.07018,-0.07018 0.11028,-0.16041 0.11028,-0.26067l0,-2.62677c0,-0.10026 -0.0401,-0.19049 -0.11028,-0.26067c-0.07018,-0.07018 -0.16041,-0.11028 -0.26067,-0.11028l-0.48124,0l0,-0.46119c0,-0.41106 -0.21054,-0.78202 -0.47122,-1.05271c-0.2707,-0.28072 -0.60155,-0.50129 -1.01261,-0.50129zm0,0.75194c0.09023,0 0.30078,0.09023 0.47122,0.2707c0.16041,0.17044 0.26067,0.39101 0.26067,0.53137l0,0.46119l-1.54398,0l0,-0.46119c0,-0.10026 0.10026,-0.34088 0.2707,-0.51132c0.17044,-0.18047 0.40103,-0.29075 0.5414,-0.29075zm-1.69437,2.0152l3.27846,0l0,1.86481l-3.27846,0l0,-1.86481zm-10.53718,11.56984l0,-25.06464l25.06464,0l0,25.06464l-25.06464,0z"/>
 </g>
</svg>